<?xml version="1.0" standalone="no"?>
<!DOCTYPE svg PUBLIC "-//W3C//DTD SVG 20010904//EN"
 "http://www.w3.org/TR/2001/REC-SVG-20010904/DTD/svg10.dtd">
<svg version="1.0" xmlns="http://www.w3.org/2000/svg"
 width="512.000000pt" height="512.000000pt" viewBox="0 0 512.000000 512.000000"
 preserveAspectRatio="xMidYMid meet">
<metadata>
Created by potrace 1.11, written by Peter Selinger 2001-2013
</metadata>
<g transform="translate(0.000000,512.000000) scale(0.100000,-0.100000)"
fill="#000000" stroke="none">
<path d="M3549 4529 l-66 -172 56 -47 c85 -71 231 -246 231 -278 0 -6 4 -12 9
-14 14 -5 116 -224 151 -323 43 -123 85 -290 109 -432 30 -177 36 -229 46
-403 6 -87 6 -532 0 -595 -10 -123 -16 -193 -21 -225 -7 -51 -26 -172 -31
-195 -7 -37 -22 -110 -27 -132 -77 -362 -280 -737 -487 -900 l-36 -29 65 -169
c36 -94 66 -172 68 -173 7 -9 149 67 230 124 259 180 495 501 650 886 38 94
96 269 109 328 2 8 12 56 24 105 20 87 25 116 37 200 3 22 7 51 10 65 12 78
19 221 19 425 0 274 -8 373 -45 575 -57 307 -151 574 -291 826 -52 92 -159
257 -178 274 -3 3 -31 34 -61 70 -132 155 -267 264 -417 340 -44 22 -82 40
-84 40 -2 0 -34 -77 -70 -171z"/>
<path d="M2056 4053 c-77 -186 -176 -430 -222 -543 -46 -113 -88 -214 -94
-225 -30 -63 -161 -397 -158 -401 9 -8 510 -6 517 3 4 4 40 96 81 203 146 390
262 695 270 710 8 13 9 13 14 0 3 -8 81 -217 173 -465 l168 -450 130 -5 c72
-3 190 -4 264 -2 120 3 133 5 128 20 -5 16 -324 794 -352 857 -14 31 -49 117
-182 440 l-79 190 -260 3 -260 2 -138 -337z"/>
<path d="M713 3690 c-103 -34 -178 -99 -221 -190 -37 -79 -37 -202 -1 -280 32
-66 95 -132 158 -165 103 -52 253 -58 366 -15 81 31 175 123 199 197 67 203
-34 395 -240 456 -69 20 -196 19 -261 -3z"/>
<path d="M750 2042 c-51 -8 -146 -60 -189 -103 -67 -67 -94 -135 -95 -239 0
-71 4 -94 26 -140 66 -140 199 -213 377 -206 121 4 186 31 266 110 75 73 99
133 98 241 -2 118 -50 210 -144 275 -83 57 -220 82 -339 62z"/>
</g>
</svg>
